PathFileType	4	(X/Y/Z)	./resultDataOpenSim/trcMotMarkerGrf/sub10/qtm-13-03.trc
DataRate	CameraRate	NumFrames	NumMarkers	Units	OrigDataRate	OrigDataStartFrame	OrigNumFrames
250.000000	250.000000	14	24	m	250.000000	122	486
Frame#	Time	L.Toe.Tip			R.Toe.Tip			L.Ankle.Lat			R.Ankle.Lat			L.Ankle.Med			R.Ankle.Med			L.Heel			R.Heel			L.Knee.Lat			R.Knee.Lat			L.Knee.Med			R.Knee.Med			L.Thigh.Upper			R.Thigh.Upper			L.ASIS			R.ASIS			V.Sacral			L.Acromium			R.Acromium			C7			L.Elbow			R.Elbow			L.Wrist.Lat			R.Wrist.Lat
		X1	Y1	Z1	X2	Y2	Z2	X3	Y3	Z3	X4	Y4	Z4	X5	Y5	Z5	X6	Y6	Z6	X7	Y7	Z7	X8	Y8	Z8	X9	Y9	Z9	X10	Y10	Z10	X11	Y11	Z11	X12	Y12	Z12	X13	Y13	Z13	X14	Y14	Z14	X15	Y15	Z15	X16	Y16	Z16	X17	Y17	Z17	X18	Y18	Z18	X19	Y19	Z19	X20	Y20	Z20	X21	Y21	Z21	X22	Y22	Z22	X23	Y23	Z23	X24	Y24	Z24

122	0.484	-0.21511785	0.13216716	-0.04052218	-0.8305742	0.038784211	0.12819103	-0.34407332	0.093721013	-0.066281916	-0.97270281	0.058283005	0.16038888	-0.34327064	0.12563875	0.014658948	-0.94967002	0.080278355	0.07579364	-0.38289044	0.038643946	-0.017746043	-1.0226722	0.035430929	0.11068281	-0.50150906	0.44873655	-0.098535424	-0.82984986	0.43891907	0.18944811	-0.47865865	0.43735083	0.023964353	-0.81102521	0.43581216	0.061152277	-0.65337963	0.81043638	-0.14920365	-0.75327167	0.84959354	0.22513262	-0.61385266	0.9265968	-0.073609477	-0.66211709	0.93701404	0.167623	-0.8370731	0.93655295	0.021979569	-0.69386787	1.3903338	-0.11444198	-0.70922279	1.3828732	0.20835084	-0.78257423	1.4196103	0.040180014	-0.877827	1.1086152	-0.18804868	-0.77075897	1.0414179	0.30293891	-0.8304456	0.87029382	-0.22098267	-0.57705447	0.88730298	0.33671978
123	0.488	-0.20402098	0.13457632	-0.039295531	-0.83050232	0.038735635	0.12817967	-0.33222523	0.094594908	-0.066736844	-0.97310712	0.058424442	0.1602458	-0.33271461	0.12614706	0.014346425	-0.9493312	0.080275348	0.07552338	-0.37088972	0.038696908	-0.019157708	-1.0227769	0.035761113	0.11074779	-0.49326747	0.44801423	-0.098481669	-0.82660423	0.43780283	0.18912044	-0.47291295	0.43542418	0.024376601	-0.80717905	0.43471515	0.061021777	-0.64631309	0.8084861	-0.14885949	-0.74869921	0.84817074	0.22499834	-0.60723059	0.92485337	-0.073038448	-0.65674283	0.93551994	0.16790596	-0.83093363	0.93459781	0.021149087	-0.68824303	1.3886267	-0.11438373	-0.70327245	1.3810762	0.20833178	-0.77686368	1.417887	0.040209307	-0.87390836	1.107638	-0.18740527	-0.76321476	1.0392741	0.30383584	-0.82686261	0.86943121	-0.22101724	-0.56715037	0.88775231	0.33603397
124	0.492	-0.19356936	0.13636624	-0.038232893	-0.83042971	0.03869131	0.12817109	-0.32109828	0.095141814	-0.067150705	-0.97328116	0.058653833	0.16017602	-0.32266844	0.12647075	0.014002245	-0.94895483	0.080287627	0.075250328	-0.359631	0.038633068	-0.020361301	-1.0228162	0.03614581	0.11070649	-0.48476767	0.44725935	-0.098265373	-0.82310883	0.43669882	0.18884228	-0.46703987	0.4335508	0.024667191	-0.80324341	0.43359947	0.060885038	-0.63919068	0.80650937	-0.14849929	-0.74409981	0.84668414	0.22485057	-0.60062583	0.92308456	-0.072428826	-0.65155016	0.93399422	0.16823002	-0.82475802	0.93263165	0.020353455	-0.68255945	1.3869293	-0.11435506	-0.69729309	1.3792841	0.20827318	-0.77112556	1.4161701	0.04021508	-0.8699177	1.1066589	-0.18670288	-0.75567885	1.0371544	0.3046639	-0.82324821	0.86857718	-0.22111767	-0.55733369	0.88824502	0.33535819
125	0.496	-0.18376605	0.13753926	-0.037340869	-0.83036106	0.03865328	0.12816379	-0.31070449	0.095369077	-0.067531662	-0.97327074	0.058914582	0.1600798	-0.31326013	0.12653578	0.013553476	-0.94855542	0.080319655	0.074977559	-0.34919555	0.038413694	-0.021374758	-1.0227539	0.036580617	0.11050024	-0.47606204	0.44652574	-0.097901511	-0.81938062	0.43561344	0.18860341	-0.46096817	0.43175472	0.024868875	-0.7992417	0.43249084	0.060706782	-0.63195909	0.80450936	-0.14811222	-0.73948925	0.84514268	0.22469694	-0.59406025	0.92128152	-0.071804009	-0.64654135	0.9324313	0.16860371	-0.81852997	0.93065367	0.019549395	-0.67681921	1.3852442	-0.11436382	-0.69127915	1.3775111	0.20818185	-0.76534632	1.4144662	0.040186485	-0.86581806	1.1056779	-0.18588748	-0.74815232	1.0350708	0.30542212	-0.81965967	0.86773406	-0.22126031	-0.54761039	0.88879124	0.33469605
126	0.5	-0.17460027	0.13812786	-0.036595422	-0.83029946	0.038620731	0.1281553	-0.30103985	0.095307015	-0.067908636	-0.97297638	0.059200532	0.15989696	-0.30460876	0.12626167	0.012944775	-0.94814808	0.080377039	0.07471344	-0.33960473	0.0380202	-0.022272491	-1.0226405	0.03706171	0.11021141	-0.46729676	0.44590942	-0.097516616	-0.81555968	0.43452111	0.1883412	-0.45467827	0.43006626	0.024999212	-0.79521563	0.4314096	0.060433186	-0.62461426	0.80248573	-0.14769662	-0.73488507	0.84355615	0.22454802	-0.58753212	0.91944117	-0.071176804	-0.64163227	0.93084122	0.16903258	-0.81225524	0.92867002	0.018711898	-0.67103816	1.3835717	-0.11440367	-0.68523752	1.3757673	0.20806317	-0.75951916	1.4127812	0.040117603	-0.86164626	1.104701	-0.18500171	-0.74063489	1.0330377	0.30610829	-0.81606073	0.8669242	-0.22141528	-0.53798275	0.88940103	0.33404755
127	0.504	-0.16605616	0.1381555	-0.035972005	-0.83024259	0.038591411	0.12814394	-0.29209499	0.094982468	-0.068313091	-0.97222123	0.059571676	0.15963623	-0.29667372	0.12563699	0.012226273	-0.94772297	0.080466278	0.074466198	-0.33082704	0.037445029	-0.023158495	-1.0225225	0.037583338	0.10988755	-0.45857304	0.44545472	-0.097181663	-0.81176324	0.43339046	0.18799779	-0.44816686	0.42851643	0.025070091	-0.79115124	0.43033919	0.060075459	-0.61716834	0.80043972	-0.14725808	-0.73029149	0.84192293	0.2244005	-0.58101143	0.91758106	-0.070523911	-0.6367492	0.92923486	0.1695155	-0.8059585	0.92668818	0.017839672	-0.66522878	1.3819174	-0.11446799	-0.67917803	1.37406	0.20790641	-0.75364433	1.4111177	0.040010373	-0.8574592	1.1037368	-0.18413524	-0.73312947	1.0310701	0.3067226	-0.81225993	0.86617852	-0.22155626	-0.52845369	0.8900779	0.33340948
128	0.508	-0.15812458	0.13762444	-0.035482131	-0.8301848	0.038563751	0.12812892	-0.2838633	0.094407665	-0.068763996	-0.97107051	0.060071736	0.15935818	-0.28922343	0.12474852	0.011558217	-0.94724724	0.080592108	0.074242363	-0.32283509	0.036681727	-0.024087923	-1.022417	0.038144343	0.10951246	-0.44990457	0.44514728	-0.096866192	-0.80804084	0.43220295	0.18755262	-0.44142262	0.42712925	0.025091294	-0.78697114	0.42923553	0.059711759	-0.60963358	0.7983892	-0.14681275	-0.72570149	0.8402428	0.2242373	-0.57447077	0.91572495	-0.069812038	-0.63185766	0.92762146	0.17005038	-0.79966827	0.9247053	0.016947712	-0.65939276	1.3802845	-0.11456014	-0.67309249	1.3723935	0.20768787	-0.74772404	1.4094772	0.039865831	-0.85330448	1.102792	-0.18339308	-0.72564509	1.0291804	0.30726881	-0.80798898	0.865518	-0.22167103	-0.51902792	0.89081876	0.33277384
129	0.512	-0.15079025	0.13653619	-0.035149709	-0.83012189	0.038536215	0.12810899	-0.2763345	0.093581482	-0.06925915	-0.97006793	0.060627284	0.15910548	-0.28217245	0.12363185	0.010997284	-0.94669515	0.080758402	0.074043404	-0.3156139	0.035723371	-0.025051002	-1.0223212	0.038758339	0.10908297	-0.44127735	0.4449574	-0.096524229	-0.80438722	0.43095553	0.18701797	-0.43443035	0.42592407	0.025070234	-0.78263722	0.42805562	0.059382741	-0.60202188	0.79637638	-0.14639239	-0.72109905	0.83851782	0.22403747	-0.56791475	0.91386943	-0.069048359	-0.62694707	0.92600206	0.17063705	-0.79341683	0.92271762	0.016060071	-0.65352656	1.3786724	-0.1146831	-0.66696997	1.3707686	0.20739825	-0.74176528	1.4078685	0.039682865	-0.84920886	1.1018731	-0.18283844	-0.71819556	1.0273797	0.30775303	-0.80320264	0.86494195	-0.22177765	-0.50971093	0.89162163	0.33213174
130	0.516	-0.1440214	0.13490694	-0.034980215	-0.83005307	0.038506437	0.12808019	-0.26948866	0.092497364	-0.069772542	-0.96982124	0.06108713	0.15883241	-0.27578498	0.12217343	0.010376808	-0.94607945	0.08097533	0.073847237	-0.3091502	0.03456761	-0.026016172	-1.0222217	0.039456172	0.10863081	-0.43269954	0.44484674	-0.096158966	-0.80072091	0.42966164	0.18643383	-0.42718358	0.42491313	0.025014081	-0.77819114	0.42677545	0.059058121	-0.59434816	0.79446554	-0.14603537	-0.71646026	0.83673986	0.22378539	-0.5613504	0.91199815	-0.068263943	-0.62201163	0.92436844	0.17127455	-0.78723458	0.9207319	0.015192868	-0.64762491	1.3770858	-0.11483405	-0.6608126	1.3691912	0.20705101	-0.73578846	1.4063114	0.039467392	-0.84515825	1.1009881	-0.18238029	-0.71079668	1.0256809	0.3081819	-0.79824355	0.86442768	-0.22192639	-0.50050746	0.89249074	0.33148195
131	0.52	-0.13780404	0.13276103	-0.0349924	-0.82997966	0.038474915	0.12803756	-0.26330473	0.091153249	-0.070268398	-0.97030446	0.06140725	0.15845093	-0.2702218	0.12031506	0.0095972334	-0.9454537	0.081262261	0.073618766	-0.30343572	0.03322745	-0.026975755	-1.0221027	0.04027136	0.10816424	-0.42422144	0.44476036	-0.095834727	-0.79691902	0.42834775	0.18585349	-0.41968655	0.42409117	0.024937647	-0.77368761	0.42539395	0.058699785	-0.58662894	0.79273668	-0.1457651	-0.71176633	0.83490916	0.22347593	-0.55475989	0.91011945	-0.067468504	-0.61704359	0.922719	0.17196291	-0.78111914	0.91874653	0.014331038	-0.64168263	1.3755364	-0.1150089	-0.65462249	1.3676739	0.20665635	-0.72981353	1.4048232	0.039229038	-0.84108457	1.1001461	-0.18180106	-0.70346402	1.0240989	0.3085612	-0.79351041	0.86395368	-0.22215666	-0.49142094	0.89343379	0.33083176
132	0.524	-0.13214679	0.13013195	-0.03520886	-0.82990244	0.038447803	0.12797847	-0.25776386	0.089559594	-0.070720127	-0.97095562	0.061718322	0.15794288	-0.26522917	0.1181983	0.0088202981	-0.94486111	0.081637715	0.073340982	-0.29845815	0.031734892	-0.027919771	-1.0219495	0.041221459	0.10763469	-0.41592144	0.44464089	-0.095642094	-0.79291666	0.42703497	0.1853115	-0.41195562	0.42343626	0.024863027	-0.76914112	0.42392263	0.058305178	-0.57887611	0.79126612	-0.14556693	-0.70701467	0.83305131	0.22311415	-0.54814034	0.90825377	-0.066662195	-0.6120368	0.92106441	0.17270158	-0.77502579	0.91673782	0.013431796	-0.63570086	1.374037	-0.11520413	-0.64839991	1.366228	0.20620789	-0.72382698	1.4033914	0.038961516	-0.83685435	1.0993681	-0.18091513	-0.69621182	1.0226457	0.30889555	-0.78904482	0.86352205	-0.22245818	-0.48245655	0.89445617	0.33018842
133	0.528	-0.12703912	0.12707227	-0.035597253	-0.82982005	0.038431977	0.12790221	-0.25284015	0.087739098	-0.071115059	-0.97135325	0.062184928	0.15736441	-0.26046563	0.11600796	0.0082614611	-0.9442622	0.082104388	0.072996514	-0.29417596	0.030127698	-0.028765687	-1.0217508	0.042310555	0.1069766	-0.40782877	0.44445478	-0.095592953	-0.78874929	0.42572456	0.18480055	-0.4040265	0.42292181	0.024806886	-0.76452788	0.42237399	0.057900156	-0.57110436	0.79010264	-0.14539351	-0.70221099	0.83119405	0.22271042	-0.54152903	0.90641121	-0.065856082	-0.60698995	0.91940987	0.1734749	-0.76892117	0.91468839	0.012472902	-0.62968913	1.3725944	-0.11541811	-0.64215407	1.3648595	0.20569624	-0.71778999	1.4019781	0.038640364	-0.83229558	1.0986875	-0.17959743	-0.68904992	1.021326	0.30918725	-0.78460517	0.86314872	-0.22279329	-0.47362027	0.89555794	0.32955025
134	0.532	-0.12244654	0.12364222	-0.036089547	-0.82972992	0.038429051	0.12781061	-0.24850111	0.085719133	-0.071449516	-0.97141585	0.062873415	0.15674705	-0.25574923	0.11384568	0.0080356988	-0.94355112	0.082646921	0.072545737	-0.29052432	0.028431057	-0.029409372	-1.0214997	0.043544182	0.1061607	-0.3998394	0.44420399	-0.095540422	-0.78449722	0.42441001	0.1842823	-0.39595148	0.42252245	0.02477159	-0.75981361	0.4207606	0.057508922	-0.5633421	0.78925681	-0.14519767	-0.69735201	0.82934517	0.22227397	-0.53496344	0.90460308	-0.065070783	-0.60190073	0.91774511	0.17424889	-0.76283795	0.91262363	0.011487085	-0.62365836	1.3712062	-0.1156519	-0.63589854	1.3635697	0.2051195	-0.71169526	1.4005601	0.038248364	-0.82740461	1.0981223	-0.17792215	-0.68197962	1.0201372	0.30943492	-0.7800014	0.86284423	-0.22313619	-0.46491378	0.89673619	0.32890702
135	0.536	-0.118338	0.11989257	-0.036637125	-0.82963059	0.038435686	0.12770956	-0.24471766	0.083528101	-0.071724324	-0.9712107	0.063757728	0.1560774	-0.25101714	0.11174913	0.008181245	-0.94266824	0.083251239	0.071967121	-0.28744555	0.026656241	-0.029828052	-1.021185	0.044935613	0.10521411	-0.39180465	0.44390595	-0.095325399	-0.78020415	0.42309592	0.18372453	-0.38778096	0.42221218	0.024748837	-0.75497839	0.41909656	0.057133208	-0.55562014	0.78870044	-0.14495327	-0.69241685	0.82749851	0.22180912	-0.52842387	0.90285509	-0.064335457	-0.59675745	0.91605981	0.17499712	-0.75682918	0.91060218	0.010519386	-0.61761432	1.3698678	-0.11590811	-0.62964054	1.3623512	0.20448395	-0.70558999	1.3991487	0.03779181	-0.82249887	1.0976494	-0.17636903	-0.67499687	1.019075	0.30963733	-0.77521275	0.86261257	-0.22347783	-0.45633818	0.8979882	0.32825064
